<svg width="22" height="22" viewBox="0 0 22 22" fill="none" xmlns="http://www.w3.org/2000/svg">
<g clip-path="url(#clip0_1_757)">
<path d="M11 16.9584C12.5803 16.9584 14.0958 16.3307 15.2132 15.2133C16.3306 14.0959 16.9584 12.5803 16.9584 11.0001C16.9584 9.41983 16.3306 7.90431 15.2132 6.7869C14.0958 5.6695 12.5803 5.04175 11 5.04175C9.41977 5.04175 7.90425 5.6695 6.78684 6.7869C5.66944 7.90431 5.04169 9.41983 5.04169 11.0001C5.04169 12.5803 5.66944 14.0959 6.78684 15.2133C7.90425 16.3307 9.41977 16.9584 11 16.9584Z" stroke="white" stroke-width="1.5" stroke-linecap="round" stroke-linejoin="round"/>
<path d="M17.545 17.5449L17.4258 17.4258M17.4258 4.57408L17.545 4.45492M4.45498 17.5449L4.57415 17.4258M11 1.90659V1.83325M11 20.1666V20.0933M1.90665 10.9999H1.83331M20.1666 10.9999H20.0933M4.57415 4.57408L4.45498 4.45492" stroke="white" stroke-width="2" stroke-linecap="round" stroke-linejoin="round"/>
</g>
<defs>
<clipPath id="clip0_1_757">
<rect width="22" height="22" fill="white"/>
</clipPath>
</defs>
</svg>
